<svg width="64" height="64" viewBox="0 0 64 64" fill="none" xmlns="http://www.w3.org/2000/svg">
  <rect x="6" y="6" width="52" height="52" rx="18" fill="#FFF5F2"/>
  <path d="M31.199 13.902c-4.754 0-8.607 3.853-8.607 8.607 0 .83.118 1.633.338 2.395l-6.573 3.789a8.527 8.527 0 0 0-6.034-2.486c-4.743 0-8.59 3.847-8.59 8.589 0 4.743 3.847 8.59 8.59 8.59a8.545 8.545 0 0 0 6.344-2.799l6.262 3.615c-.151.645-.23 1.316-.23 2.008 0 4.754 3.853 8.607 8.607 8.607 4.754 0 8.607-3.853 8.607-8.607 0-.666-.075-1.315-.218-1.938l6.441-3.719a8.557 8.557 0 0 0 6.181 2.578c4.796 0 8.684-3.888 8.684-8.684 0-4.796-3.888-8.684-8.684-8.684a8.534 8.534 0 0 0-6.014 2.404l-6.543-3.778a8.53 8.53 0 0 0 .247-2.261c0-4.754-3.853-8.607-8.607-8.607Z" fill="#FF6B6B"/>
</svg>
