<svg width="1200" height="720" viewBox="0 0 1200 720" fill="none" xmlns="http://www.w3.org/2000/svg">
  <rect width="1200" height="720" rx="38" fill="#FFF9F8"/>
  <rect x="26" y="26" width="1148" height="668" rx="30" fill="#FFFFFF" stroke="#F2D8D2" stroke-width="4"/>
  <rect x="58" y="58" width="1084" height="52" rx="18" fill="#FFE6E3"/>
  <rect x="84" y="77" width="184" height="14" rx="7" fill="#FF8C8C"/>
  <rect x="314" y="71" width="372" height="26" rx="13" fill="#FFF3F1" stroke="#F3D7D0" stroke-width="2"/>
  <rect x="722" y="71" width="82" height="26" rx="13" fill="#FFFFFF" stroke="#F3D7D0" stroke-width="2"/>
  <rect x="828" y="71" width="82" height="26" rx="13" fill="#FFFFFF" stroke="#F3D7D0" stroke-width="2"/>
  <rect x="936" y="71" width="120" height="26" rx="13" fill="#FFFFFF" stroke="#F3D7D0" stroke-width="2"/>
  <rect x="58" y="142" width="260" height="516" rx="28" fill="#FFF8F6" stroke="#F1DBD6" stroke-width="3"/>
  <rect x="358" y="142" width="538" height="516" rx="28" fill="#FFFFFF" stroke="#F1DBD6" stroke-width="3"/>
  <rect x="930" y="142" width="212" height="516" rx="28" fill="#FFFDFD" stroke="#F1DBD6" stroke-width="3"/>
  <rect x="88" y="180" width="132" height="14" rx="7" fill="#CC8C86"/>
  <rect x="88" y="224" width="180" height="22" rx="11" fill="#FFE2DF"/>
  <rect x="88" y="262" width="154" height="18" rx="9" fill="#EED9D4"/>
  <rect x="88" y="294" width="170" height="18" rx="9" fill="#EED9D4"/>
  <rect x="88" y="338" width="110" height="14" rx="7" fill="#CC8C86"/>
  <rect x="88" y="376" width="182" height="18" rx="9" fill="#EED9D4"/>
  <rect x="88" y="408" width="174" height="18" rx="9" fill="#EED9D4"/>
  <rect x="392" y="182" width="164" height="16" rx="8" fill="#CC8C86"/>
  <rect x="392" y="220" width="322" height="40" rx="20" fill="#FFF3F1" stroke="#F4D6D0" stroke-width="2"/>
  <g filter="url(#a)">
    <rect x="392" y="292" width="472" height="122" rx="28" fill="#FFF8F6"/>
  </g>
  <path d="M462 353c0-12.15 9.85-22 22-22h287c12.15 0 22 9.85 22 22s-9.85 22-22 22H484c-12.15 0-22-9.85-22-22Z" fill="#FF6B6B" fill-opacity=".18"/>
  <rect x="392" y="450" width="472" height="172" rx="28" fill="#FFFDFD" stroke="#F1DBD6" stroke-width="3"/>
  <rect x="430" y="490" width="128" height="18" rx="9" fill="#C98881"/>
  <rect x="430" y="528" width="196" height="16" rx="8" fill="#EED9D4"/>
  <rect x="430" y="558" width="238" height="16" rx="8" fill="#EED9D4"/>
  <rect x="430" y="588" width="214" height="16" rx="8" fill="#EED9D4"/>
  <rect x="964" y="180" width="118" height="16" rx="8" fill="#CC8C86"/>
  <rect x="964" y="226" width="132" height="14" rx="7" fill="#EED9D4"/>
  <rect x="964" y="258" width="126" height="14" rx="7" fill="#EED9D4"/>
  <rect x="964" y="290" width="116" height="14" rx="7" fill="#EED9D4"/>
  <rect x="964" y="338" width="146" height="98" rx="22" fill="#FFF8F6" stroke="#F1DBD6" stroke-width="2"/>
  <rect x="984" y="366" width="102" height="10" rx="5" fill="#CC8C86"/>
  <rect x="984" y="392" width="82" height="10" rx="5" fill="#EED9D4"/>
  <rect x="984" y="418" width="90" height="10" rx="5" fill="#EED9D4"/>
  <defs>
    <filter id="a" x="362" y="270" width="532" height="182" filterUnits="userSpaceOnUse" color-interpolation-filters="sRGB">
      <feFlood flood-opacity="0" result="BackgroundImageFix"/>
      <feColorMatrix in="SourceAlpha" values="0 0 0 0 0 0 0 0 0 0 0 0 0 0 0 0 0 0 127 0" result="hardAlpha"/>
      <feOffset dy="8"/>
      <feGaussianBlur stdDeviation="15"/>
      <feColorMatrix values="0 0 0 0 0.870588 0 0 0 0 0.627451 0 0 0 0 0.619608 0 0 0 0.16 0"/>
      <feBlend in2="BackgroundImageFix" result="effect1_dropShadow_1_2"/>
      <feBlend in="SourceGraphic" in2="effect1_dropShadow_1_2" result="shape"/>
    </filter>
  </defs>
</svg>
