<svg width="128" height="128" viewBox="0 0 128 128" fill="none" xmlns="http://www.w3.org/2000/svg">
  <rect x="12" y="12" width="104" height="104" rx="32" fill="#FFF5F2"/>
  <path d="M62.341 25.138c-8.662 0-15.682 7.02-15.682 15.682 0 1.513.214 2.977.614 4.364l-11.977 6.904c-2.825-2.8-6.708-4.527-10.994-4.527-8.643 0-15.653 7.01-15.653 15.652 0 8.642 7.01 15.651 15.653 15.651 4.577 0 8.695-1.965 11.558-5.097l11.41 6.58c-.275 1.175-.421 2.4-.421 3.66 0 8.662 7.02 15.683 15.682 15.683 8.661 0 15.682-7.021 15.682-15.683 0-1.214-.137-2.396-.397-3.532l11.736-6.772c2.875 2.898 6.855 4.692 11.253 4.692 8.758 0 15.857-7.099 15.857-15.857 0-8.758-7.099-15.857-15.857-15.857-4.246 0-8.101 1.669-10.951 4.387L78.09 45.023c.294-1.327.45-2.705.45-4.121 0-8.662-7.021-15.682-15.682-15.682Z" fill="#FF6B6B"/>
  <circle cx="62.341" cy="25.138" r="8.883" fill="#FF8D8D"/>
  <circle cx="24.302" cy="63.213" r="8.883" fill="#FF8D8D"/>
  <circle cx="100.331" cy="63.213" r="8.883" fill="#FF8D8D"/>
  <circle cx="62.341" cy="101.289" r="8.883" fill="#FF8D8D"/>
</svg>
